<?xml version="1.0" encoding="utf-8"?>
<svg id="Layer_1" data-name="Layer 1" xmlns="http://www.w3.org/2000/svg" viewBox="0 0 588.67 344.67"><defs><style>.cls-1{fill:#fff;}</style></defs><path class="cls-1" d="M319,117.37a29.14,29.14,0,1,0-29.14-29.13A29.17,29.17,0,0,0,319,117.37Z"/><path class="cls-1" d="M251.67,133.39a38,38,0,0,1-37.91-37.91,24.09,24.09,0,1,0-24.1,24.09,38,38,0,0,1,37.92,37.91,24.09,24.09,0,1,0,24.09-24.09Z"/><path class="cls-1" d="M394,59.09a29.18,29.18,0,0,0-29.16,29.15A45.91,45.91,0,0,1,319,134.1l-6.93,0a34.94,34.94,0,0,1-34.9-34.89A22.17,22.17,0,1,0,255,121.42a34.93,34.93,0,0,1,34.9,34.89l0,6.94a29.14,29.14,0,0,0,58.28,0A45.93,45.93,0,0,1,394,117.37a29.14,29.14,0,0,0,0-58.28Z"/><path class="cls-1" d="M44.33,229.77H58l12,39.37,13-39.54h11l13,39.54,12-39.37h13.38L112.7,288.33H101.56l-13.12-38-13.13,38H64.19Z"/><path class="cls-1" d="M143.65,229.77h43.86v11.38H156.36V253h27.41v11.37H156.36v12.21h31.56v11.38H143.65Z"/><path class="cls-1" d="M201,229.77h27c6.64,0,11.88,1.82,15.2,5.15a13.34,13.34,0,0,1,4,9.88V245c0,6.56-3.5,10.21-7.65,12.54,6.73,2.58,10.88,6.48,10.88,14.29V272c0,10.64-8.64,16-21.76,16H201ZM234.42,247c0-3.82-3-6-8.38-6H213.41v12.29h11.8c5.65,0,9.21-1.83,9.21-6.15Zm-6.22,17H213.41V276.7h15.2c5.65,0,9-2,9-6.32v-.16C237.66,266.32,234.75,263.91,228.2,263.91Z"/><path class="cls-1" d="M260,279.44l4.08-4.82c6.06,5.48,11.87,8.23,19.93,8.23,7.8,0,13-4.16,13-9.89v-.17c0-5.4-2.91-8.47-15.12-11-13.38-2.91-19.52-7.23-19.52-16.78v-.17c0-9.13,8.06-15.86,19.1-15.86a30.32,30.32,0,0,1,20.43,7.14L298,241.15c-5.4-4.4-10.81-6.32-16.78-6.32-7.56,0-12.38,4.16-12.38,9.39v.17c0,5.48,3,8.56,15.78,11.3,13,2.82,18.94,7.56,18.94,16.44v.17c0,10-8.3,16.44-19.85,16.44C274.53,288.74,267,285.67,260,279.44Z"/><path class="cls-1" d="M316,259v-.17c0-16.44,12.3-30.07,29.41-30.07,10.54,0,16.86,3.74,22.67,9.23l-4.48,4.81c-4.9-4.65-10.38-8-18.28-8-12.86,0-22.5,10.48-22.5,23.85v.16c0,13.46,9.72,24,22.5,24,8,0,13.21-3.08,18.78-8.4l4.32,4.24c-6.07,6.15-12.71,10.22-23.26,10.22C328.42,288.91,316,275.7,316,259Z"/><path class="cls-1" d="M403.08,229.36h6.15l26.49,58.55h-7.06l-6.81-15.36H390.2l-6.89,15.36h-6.73Zm16.2,37.21L406.07,237l-13.29,29.57Z"/><path class="cls-1" d="M448.83,229.77h6.56v52.08h32.73v6.06H448.83Z"/><path class="cls-1" d="M501.89,229.77h42v6H508.45v19.86h31.73v6H508.45v20.35h35.88v6H501.89Z"/></svg>