<?xml version="1.0" encoding="utf-8"?>
<!-- Generator: Adobe Illustrator 25.0.0, SVG Export Plug-In . SVG Version: 6.00 Build 0)  -->
<svg version="1.1" id="Layer_1" xmlns="http://www.w3.org/2000/svg" xmlns:xlink="http://www.w3.org/1999/xlink" x="0px" y="0px"
	 viewBox="0 0 588.67 344.67" style="enable-background:new 0 0 588.67 344.67;" xml:space="preserve">
<style type="text/css">
	.st0{fill:#007A87;}
	.st1{fill:#E37222;}
	.st2{fill:#616365;}
	.st3{display:none;fill:#007A87;}
	.st4{font-family:'Gotham-Medium';}
	.st5{font-size:88px;}
	.st6{fill:#FFFFFF;}
</style>
<g>
	<g>
		<path class="st0" d="M318.95,117.37c16.07,0,29.13-13.07,29.13-29.13c0-16.07-13.06-29.15-29.13-29.15
			c-16.07,0-29.14,13.08-29.14,29.15C289.81,104.3,302.88,117.37,318.95,117.37z"/>
		<path class="st1" d="M251.67,133.39c-20.91,0-37.92-17.01-37.92-37.91c0-13.28-10.82-24.09-24.09-24.09
			c-13.29,0-24.09,10.81-24.09,24.09c0,13.28,10.8,24.09,24.09,24.09c20.9,0,37.92,17,37.92,37.91c0,13.28,10.8,24.09,24.09,24.09
			c13.28,0,24.08-10.81,24.08-24.09C275.76,144.2,264.96,133.39,251.67,133.39z"/>
		<path class="st0" d="M393.97,59.09c-16.08,0-29.15,13.08-29.15,29.15c0,25.28-20.58,45.86-45.86,45.86l-6.93,0.04
			c-19.24,0-34.9-15.66-34.9-34.89c0-12.23-9.94-22.18-22.17-22.18c-12.23,0-22.17,9.95-22.17,22.18c0,12.22,9.94,22.17,22.17,22.17
			c19.24,0,34.9,15.65,34.9,34.9l-0.04,6.93c0,16.06,13.07,29.14,29.14,29.14c16.07,0,29.13-13.08,29.13-29.14
			c0-25.29,20.58-45.87,45.88-45.87c16.06,0,29.13-13.07,29.13-29.13C423.1,72.17,410.03,59.09,393.97,59.09z"/>
	</g>
	<g>
		<path class="st2" d="M44.33,229.77h13.7l12.05,39.37l13.04-39.54h10.96l13.04,39.54l12.04-39.37h13.38l-19.85,58.56h-11.14
			l-13.12-38.04l-13.13,38.04H64.19L44.33,229.77z"/>
		<path class="st2" d="M143.65,229.77h43.86v11.38h-31.15v11.8h27.42v11.38h-27.42v12.21h31.57v11.38h-44.27V229.77z"/>
		<path class="st2" d="M200.95,229.77h26.99c6.65,0,11.88,1.83,15.2,5.15c2.66,2.66,3.99,5.9,3.99,9.89v0.17
			c0,6.56-3.49,10.21-7.64,12.54c6.73,2.58,10.88,6.48,10.88,14.29v0.17c0,10.63-8.64,15.95-21.76,15.95h-27.66V229.77z
			 M234.42,246.96c0-3.82-2.99-5.98-8.39-5.98h-12.62v12.29h11.8c5.65,0,9.21-1.83,9.21-6.15V246.96z M228.2,263.91h-14.79v12.79
			h15.2c5.65,0,9.05-1.99,9.05-6.31v-0.16C237.66,266.32,234.75,263.91,228.2,263.91z"/>
		<path class="st2" d="M259.99,279.44l4.07-4.81c6.06,5.48,11.87,8.22,19.93,8.22c7.8,0,12.96-4.16,12.96-9.89v-0.17
			c0-5.4-2.91-8.47-15.12-11.04c-13.37-2.91-19.52-7.23-19.52-16.77v-0.17c0-9.13,8.06-15.87,19.11-15.87
			c8.47,0,14.54,2.41,20.43,7.15l-3.82,5.07c-5.4-4.4-10.8-6.31-16.78-6.31c-7.55,0-12.37,4.16-12.37,9.38v0.17
			c0,5.48,2.99,8.56,15.78,11.3c12.96,2.82,18.94,7.56,18.94,16.44v0.17c0,9.97-8.31,16.44-19.86,16.44
			C274.53,288.74,266.97,285.67,259.99,279.44z"/>
		<path class="st2" d="M316.04,259.01v-0.17c0-16.44,12.29-30.06,29.41-30.06c10.54,0,16.86,3.73,22.67,9.22l-4.49,4.81
			c-4.9-4.65-10.38-7.97-18.27-7.97c-12.87,0-22.5,10.47-22.5,23.84v0.16c0,13.46,9.72,24.01,22.5,24.01
			c7.97,0,13.21-3.08,18.77-8.4l4.32,4.24c-6.06,6.15-12.71,10.22-23.25,10.22C328.42,288.91,316.04,275.7,316.04,259.01z"/>
		<path class="st2" d="M403.08,229.36h6.15l26.49,58.55h-7.06l-6.8-15.36H390.2l-6.89,15.36h-6.73L403.08,229.36z M419.28,266.57
			L406.07,237l-13.29,29.57H419.28z"/>
		<path class="st2" d="M448.83,229.77h6.56v52.08h32.73v6.06h-39.29V229.77z"/>
		<path class="st2" d="M501.89,229.77h42.03v5.98h-35.47v19.85h31.73v5.98h-31.73v20.35h35.88v5.98h-42.45V229.77z"/>
	</g>
</g>
<text transform="matrix(1 0 0 1 40.3333 370)" class="st3 st4 st5">STANDARD</text>
<text transform="matrix(1 0 0 1 351.6665 360.0003)" class="st3 st4 st5">PRO</text>
</svg>
